<svg width="35" height="35" viewBox="0 0 35 35" fill="none" xmlns="http://www.w3.org/2000/svg">
<rect width="35" height="35" rx="17.5" fill="#34A58A"/>
<path d="M19.6805 20.2188C18.0664 21.6286 15.6527 22.0727 13.6223 21.2423C11.1741 20.2411 9.6146 17.4249 10.083 14.8045C10.5516 12.1824 12.989 10.0615 15.7146 10.001C15.7647 10.0002 15.8149 9.9999 15.8652 10C18.5439 10.0255 21.0693 12.0931 21.5654 14.7687C21.8981 16.5621 21.3245 18.4996 20.0802 19.8321L24.9137 24.5324C25.0174 24.6419 24.9995 24.6783 24.9978 24.7393C24.992 24.9513 24.7046 25.0905 24.5262 24.931L19.6805 20.2188V20.2188ZM15.7934 10.556C13.4024 10.5786 11.1588 12.3867 10.6616 14.7408C10.2956 16.4737 10.8721 18.3773 12.1398 19.6152C13.5957 21.0366 15.9001 21.5139 17.8222 20.7277C20.0458 19.8185 21.4601 17.2485 21.019 14.87C20.5817 12.5119 18.3985 10.6117 15.9298 10.5568C15.8842 10.5561 15.8388 10.5558 15.7934 10.556V10.556Z" fill="white" stroke="white"/>
</svg>
