<svg width="21" height="21" viewBox="0 0 21 21" fill="none" xmlns="http://www.w3.org/2000/svg">
<path d="M10.0635 12.8953C8.26581 11.4335 7.06091 9.6242 6.42702 8.59442L5.95357 7.71354C6.11645 7.53684 7.35863 6.19201 7.89613 5.46308C8.5716 4.54776 7.58051 3.72987 7.58051 3.72987C7.58051 3.72987 4.78928 0.968675 4.1536 0.42141C3.51792 -0.126627 2.79133 0.183669 2.79133 0.183669C1.46634 1.05011 0.0919654 1.80463 0.0289543 5.39747C0.0443007 8.76086 2.61649 12.2159 5.39219 14.8864C8.17423 17.9042 11.9878 20.9233 15.6586 20.8997C19.2502 20.7981 19.9894 19.4157 20.8413 18.0813C20.8413 18.0813 21.1438 17.352 20.5894 16.7217C20.0346 16.0917 17.2426 13.3303 17.2426 13.3303C17.2426 13.3303 16.4145 12.3481 15.5064 13.0341C14.8297 13.5458 13.6157 14.6823 13.3232 14.9578C13.3238 14.9588 11.2766 13.8818 10.0635 12.8953Z" fill="#34A58A"/>
</svg>
